<svg xmlns="http://www.w3.org/2000/svg" viewBox="0 0 240 180" role="img" aria-label="DSLR camera with target reticle">
  <defs>
    <radialGradient id="lensGlass" cx="50%" cy="48%" r="50%">
      <stop offset="0" stop-color="#2f3535"/>
      <stop offset="0.45" stop-color="#141817"/>
      <stop offset="1" stop-color="#050606"/>
    </radialGradient>
    <linearGradient id="bodySheen" x1="0" x2="1" y1="0" y2="1">
      <stop offset="0" stop-color="#2a2c2c"/>
      <stop offset="0.55" stop-color="#0f1010"/>
      <stop offset="1" stop-color="#020303"/>
    </linearGradient>
    <filter id="softShadow" x="-20%" y="-20%" width="140%" height="150%">
      <feDropShadow dx="0" dy="7" stdDeviation="6" flood-color="#000" flood-opacity=".24"/>
    </filter>
  </defs>
  <g filter="url(#softShadow)">
    <path fill="url(#bodySheen)" d="M22 68c0-12 10-22 22-22h38l13-18h50l14 18h37c12 0 22 10 22 22v64c0 12-10 22-22 22H44c-12 0-22-10-22-22V68z"/>
    <path fill="#1a1c1c" d="M52 38h42c6 0 11 5 11 11v7H42v-8c0-6 4-10 10-10z"/>
    <rect x="166" y="34" width="37" height="18" rx="8" fill="#151717"/>
    <circle cx="200" cy="71" r="7" fill="#0f7a31"/>
    <circle cx="200" cy="71" r="3" fill="#b6f0c0"/>
    <circle cx="120" cy="97" r="58" fill="#080909"/>
    <circle cx="120" cy="97" r="48" fill="#2c2f2f"/>
    <circle cx="120" cy="97" r="39" fill="url(#lensGlass)"/>
    <circle cx="120" cy="97" r="31" fill="none" stroke="#7a8684" stroke-width="3" opacity=".7"/>
    <circle cx="120" cy="97" r="21" fill="none" stroke="#c9d0cc" stroke-width="2" opacity=".55"/>
    <path d="M120 59v76M82 97h76" stroke="#d8dedb" stroke-width="3" stroke-linecap="round" opacity=".82"/>
    <circle cx="120" cy="97" r="12" fill="#ff8a16" stroke="#111" stroke-width="3"/>
    <circle cx="120" cy="97" r="4" fill="#ffb35c"/>
    <circle cx="65" cy="79" r="14" fill="#060707"/>
    <circle cx="65" cy="79" r="8" fill="#242727"/>
    <path d="M31 69c0-7 6-13 13-13h26c5 0 8 4 8 8v70H43c-7 0-12-5-12-12V69z" fill="#171919" opacity=".62"/>
    <path d="M174 58h23c7 0 13 6 13 13v51c0 7-5 12-12 12h-24V58z" fill="#171919" opacity=".62"/>
  </g>
</svg>
